<?xml version="1.0" encoding="UTF-8"?>
<svg version="1.1" xmlns="http://www.w3.org/2000/svg" width="258" height="101">
<path d="M0 0 C1.1859375 0.00257812 2.371875 0.00515625 3.59375 0.0078125 C4.7796875 0.00523438 5.965625 0.00265625 7.1875 0 C10.09375 0.1328125 10.09375 0.1328125 11.09375 1.1328125 C11.13467937 3.46578683 11.13616723 5.79986475 11.09375 8.1328125 C12.66576172 8.09800781 12.66576172 8.09800781 14.26953125 8.0625 C15.64843037 8.04373947 17.0273372 8.02553957 18.40625 8.0078125 C19.09654297 7.99105469 19.78683594 7.97429688 20.49804688 7.95703125 C24.26510396 7.92063456 25.87806704 7.98902386 29.09375 10.1328125 C29.42278836 13.05379315 29.56178751 15.75792419 29.5625 18.68359375 C29.57392029 19.96002998 29.57392029 19.96002998 29.58557129 21.26225281 C29.59638873 23.06534896 29.59921873 24.86850786 29.59472656 26.67163086 C29.59375724 29.42473853 29.63529305 32.17503171 29.6796875 34.92773438 C29.68489677 36.67968169 29.68758266 38.43163869 29.6875 40.18359375 C29.7120929 41.41508904 29.7120929 41.41508904 29.73718262 42.67146301 C29.68453178 47.05068508 29.51275566 48.62538408 26.61914062 52.12963867 C25.78576172 52.79068604 24.95238281 53.4517334 24.09375 54.1328125 C23.76375 54.4628125 23.43375 54.7928125 23.09375 55.1328125 C24.07021484 55.77323486 25.04667969 56.41365723 26.05273438 57.07348633 C27.97771203 58.68879951 28.95553391 59.64354257 29.64379883 62.07992554 C29.82050071 64.43337875 29.82095611 66.72292873 29.75 69.08203125 C29.74438049 70.36277275 29.74438049 70.36277275 29.73864746 71.66938782 C29.72524124 73.46733307 29.6974798 75.26522169 29.65625 77.06274414 C29.59371914 79.82167426 29.57428569 82.57832089 29.5625 85.33789062 C29.54416715 87.08596551 29.52341788 88.83401709 29.5 90.58203125 C29.48725037 91.82263557 29.48725037 91.82263557 29.47424316 93.08830261 C29.32821621 98.89834629 29.32821621 98.89834629 27.09375 101.1328125 C25.12036133 101.38677979 25.12036133 101.38677979 22.67578125 101.39160156 C21.30425903 101.40105804 21.30425903 101.40105804 19.9050293 101.41070557 C18.91543213 101.4066571 17.92583496 101.40260864 16.90625 101.3984375 C15.89280518 101.40035095 14.87936035 101.4022644 13.83520508 101.40423584 C11.68993888 101.40559841 9.54466447 101.40189697 7.39941406 101.39355469 C4.10723428 101.38285632 0.81560022 101.39344769 -2.4765625 101.40625 C-4.55729288 101.40492842 -6.63802291 101.40236605 -8.71875 101.3984375 C-9.70834717 101.40248596 -10.69794434 101.40653442 -11.7175293 101.41070557 C-13.08905151 101.40124908 -13.08905151 101.40124908 -14.48828125 101.39160156 C-15.29499268 101.39001038 -16.1017041 101.38841919 -16.93286133 101.38677979 C-18.90625 101.1328125 -18.90625 101.1328125 -20.90625 99.1328125 C-21.11016726 96.3123211 -21.18941471 93.58961323 -21.1809082 90.76757812 C-21.18601913 89.90243088 -21.19113007 89.03728363 -21.19639587 88.1459198 C-21.21033311 85.27689764 -21.20933217 82.40811455 -21.20703125 79.5390625 C-21.2109156 77.5513093 -21.21524972 75.56355694 -21.22001648 73.57580566 C-21.22748736 69.40614127 -21.22718091 65.23656153 -21.22192383 61.06689453 C-21.21612473 55.71310483 -21.23306667 50.35966058 -21.2562685 45.00592804 C-21.27097082 40.90022746 -21.27188239 36.79461078 -21.26875877 32.68888855 C-21.26927364 30.71444514 -21.27454222 28.73999723 -21.28457069 26.76557922 C-21.29685165 24.00950388 -21.29019423 21.25411058 -21.27856445 18.49804688 C-21.28620819 17.67616379 -21.29385193 16.8542807 -21.30172729 16.00749207 C-21.2804718 13.73864746 -21.2804718 13.73864746 -20.90625 10.1328125 C-17.1694657 7.64162297 -15.16173181 7.9262899 -10.71875 8.0078125 C-9.44644531 8.02585937 -8.17414062 8.04390625 -6.86328125 8.0625 C-5.39955078 8.09730469 -5.39955078 8.09730469 -3.90625 8.1328125 C-3.9371875 6.43125 -3.9371875 6.43125 -3.96875 4.6953125 C-3.88949444 0.17774571 -3.88949444 0.17774571 0 0 Z " fill="#52CCA7" transform="translate(20.90625,-0.1328125)"/>
<path d="M0 0 C6.15633856 -0.12385849 12.31194747 -0.21446257 18.46923828 -0.2746582 C20.5624658 -0.2997588 22.65560605 -0.33384677 24.74853516 -0.37719727 C27.76226359 -0.43804451 30.77483059 -0.4662545 33.7890625 -0.48828125 C34.72054108 -0.51408768 35.65201965 -0.5398941 36.61172485 -0.56648254 C40.77579149 -0.56826863 44.09668626 -0.44061401 47.59716797 1.97119141 C50.84557392 6.06585958 50.80918499 8.8645358 50.65625 13.94921875 C50.65063049 15.22996025 50.65063049 15.22996025 50.64489746 16.53657532 C50.63149124 18.33452057 50.6037298 20.13240919 50.5625 21.92993164 C50.49996914 24.68886176 50.48053569 27.44550839 50.46875 30.20507812 C50.45041715 31.95315301 50.42966788 33.70120459 50.40625 35.44921875 C50.39350037 36.68982307 50.39350037 36.68982307 50.38049316 37.95549011 C50.23446621 43.76553379 50.23446621 43.76553379 48 46 C46.02661133 46.25396729 46.02661133 46.25396729 43.58203125 46.25878906 C42.21050903 46.26824554 42.21050903 46.26824554 40.8112793 46.27789307 C39.82168213 46.2738446 38.83208496 46.26979614 37.8125 46.265625 C36.79905518 46.26753845 35.78561035 46.2694519 34.74145508 46.27142334 C32.59618888 46.27278591 30.45091447 46.26908447 28.30566406 46.26074219 C25.01348428 46.25004382 21.72185022 46.26063519 18.4296875 46.2734375 C16.34895712 46.27211592 14.26822709 46.26955355 12.1875 46.265625 C11.19790283 46.26967346 10.20830566 46.27372192 9.1887207 46.27789307 C8.27437256 46.27158875 7.36002441 46.26528442 6.41796875 46.25878906 C5.61125732 46.25719788 4.8045459 46.25560669 3.97338867 46.25396729 C2 46 2 46 0 44 C-0.24050903 42.08908081 -0.24050903 42.08908081 -0.22705078 39.73388672 C-0.22689972 38.85312469 -0.22674866 37.97236267 -0.22659302 37.06491089 C-0.21627045 36.11278717 -0.20594788 35.16066345 -0.1953125 34.1796875 C-0.1924826 33.20589142 -0.18965271 32.23209534 -0.18673706 31.22879028 C-0.17551913 28.11073651 -0.1504117 24.99296732 -0.125 21.875 C-0.11497228 19.76432706 -0.10584607 17.65364962 -0.09765625 15.54296875 C-0.07557458 10.36188165 -0.04208129 5.18096115 0 0 Z " fill="#284840" transform="translate(0,55)"/>
<path d="M0 0 C16.5 0 33 0 50 0 C50 10 50 10 47.625 13.0625 C44.33792366 15.4886754 42.82151362 16.1252091 38.82568359 16.11352539 C37.53457169 16.11341209 37.53457169 16.11341209 36.21737671 16.11329651 C35.28712677 16.10813522 34.35687683 16.10297394 33.3984375 16.09765625 C32.44683746 16.0962413 31.49523743 16.09482635 30.51480103 16.09336853 C27.46816903 16.08776012 24.42160987 16.07520619 21.375 16.0625 C19.31250106 16.05748608 17.25000097 16.05292299 15.1875 16.04882812 C10.12497183 16.03778796 5.06249827 16.02051767 0 16 C0 10.72 0 5.44 0 0 Z " fill="#3B9E70" transform="translate(0,39)"/>
<path d="M0 0 C16.5 0 33 0 50 0 C50 4.95 50 9.9 50 15 C33.5 15 17 15 0 15 C0 10.05 0 5.1 0 0 Z " fill="#48B88E" transform="translate(0,24)"/>
<path d="M0 0 C16.5 0 33 0 50 0 C50 4.29 50 8.58 50 13 C47.55871331 15.44128669 46.92919186 15.252187 43.58203125 15.25878906 C42.21050903 15.26824554 42.21050903 15.26824554 40.8112793 15.27789307 C39.32688354 15.27182037 39.32688354 15.27182037 37.8125 15.265625 C36.79905518 15.26753845 35.78561035 15.2694519 34.74145508 15.27142334 C32.59618888 15.27278591 30.45091447 15.26908447 28.30566406 15.26074219 C25.01348428 15.25004382 21.72185022 15.26063519 18.4296875 15.2734375 C16.34895712 15.27211592 14.26822709 15.26955355 12.1875 15.265625 C11.19790283 15.26967346 10.20830566 15.27372192 9.1887207 15.27789307 C8.27437256 15.27158875 7.36002441 15.26528442 6.41796875 15.25878906 C5.61125732 15.25719788 4.8045459 15.25560669 3.97338867 15.25396729 C2 15 2 15 0 13 C0 8.71 0 4.42 0 0 Z " fill="#1E2D2F" transform="translate(0,86)"/>
<path d="M0 0 C2.97 0 5.94 0 9 0 C9.33 0.66 9.66 1.32 10 2 C10.99 1.34 11.98 0.68 13 0 C16.13671875 -0.1953125 16.13671875 -0.1953125 19.6875 -0.125 C20.86699219 -0.10695312 22.04648438 -0.08890625 23.26171875 -0.0703125 C24.61716797 -0.03550781 24.61716797 -0.03550781 26 0 C27.32 3.3 28.64 6.6 30 10 C31.32 6.7 32.64 3.4 34 0 C36.97 0 39.94 0 43 0 C42.33809788 4.16414303 40.97756142 7.71155522 39.3125 11.578125 C39.04993408 12.19016785 38.78736816 12.80221069 38.5168457 13.43280029 C37.96436791 14.71790632 37.40955793 16.00201198 36.85253906 17.28515625 C35.99763899 19.25544142 35.1506129 21.22897233 34.3046875 23.203125 C30.14763617 32.85236383 30.14763617 32.85236383 29 34 C27.48071962 34.07179964 25.95832518 34.08392007 24.4375 34.0625 C23.61121094 34.05347656 22.78492188 34.04445312 21.93359375 34.03515625 C21.29550781 34.02355469 20.65742188 34.01195312 20 34 C20.20496094 33.39671875 20.40992188 32.7934375 20.62109375 32.171875 C20.89050781 31.37265625 21.15992188 30.5734375 21.4375 29.75 C21.70433594 28.96109375 21.97117188 28.1721875 22.24609375 27.359375 C22.49488281 26.58078125 22.74367187 25.8021875 23 25 C23.21011719 24.37609375 23.42023438 23.7521875 23.63671875 23.109375 C24.08368645 20.51407865 23.60364333 19.29264771 22.56640625 16.890625 C22.0878418 15.75947266 22.0878418 15.75947266 21.59960938 14.60546875 C21.08624023 13.43951172 21.08624023 13.43951172 20.5625 12.25 C20.22412109 11.45722656 19.88574219 10.66445313 19.53710938 9.84765625 C18.70154018 7.89407194 17.85209558 5.9464328 17 4 C16.67 5.65 16.34 7.3 16 9 C14.02 9.66 12.04 10.32 10 11 C9.67 14.96 9.34 18.92 9 23 C6.03 23 3.06 23 0 23 C0 15.41 0 7.82 0 0 Z " fill="#F1F4F3" transform="translate(171,48)"/>
<path d="M0 0 C6.15633856 -0.12385849 12.31194747 -0.21446257 18.46923828 -0.2746582 C20.5624658 -0.2997588 22.65560605 -0.33384677 24.74853516 -0.37719727 C27.76226359 -0.43804451 30.77483059 -0.4662545 33.7890625 -0.48828125 C34.72054108 -0.51408768 35.65201965 -0.5398941 36.61172485 -0.56648254 C40.74798812 -0.56825671 44.12416778 -0.4292264 47.63818359 1.90551758 C50 5 50 5 50 15 C33.5 15 17 15 0 15 C0 10.05 0 5.1 0 0 Z " fill="#317451" transform="translate(0,55)"/>
<path d="M0 0 C4.67549122 1.67611949 7.51455554 3.67348556 10 8 C11.9816528 15.30015323 10.64658298 20.52066373 7 27 C7.66 27.78375 8.32 28.5675 9 29.375 C11 32 11 32 11 34 C9.37581255 34.08090971 7.75048255 34.13914995 6.125 34.1875 C5.22007812 34.22230469 4.31515625 34.25710937 3.3828125 34.29296875 C2.20332031 34.14794922 2.20332031 34.14794922 1 34 C0.34 33.01 -0.32 32.02 -1 31 C-2.98755275 30.34911229 -2.98755275 30.34911229 -5.25 30.0625 C-10.84219596 28.95664774 -14.54121654 27.09092296 -17.875 22.3125 C-19.79142867 16.66968224 -20.02668812 12.09286425 -17.375 6.6875 C-12.15395065 0.77947047 -7.72421374 -1.13713739 0 0 Z M-8.8125 9.0625 C-10.65150018 12.06297398 -10.30671285 14.56481613 -10 18 C-8.31863969 21.1108717 -8.31863969 21.1108717 -5.6875 22 C-2.78399188 22.2557893 -2.78399188 22.2557893 -0.125 20 C2.35523982 17.11121167 2.35523982 17.11121167 2 13.3125 C1.30616669 9.74460887 1.30616669 9.74460887 -2 8 C-4.79523674 7.65059541 -6.3648354 7.62766213 -8.8125 9.0625 Z " fill="#F1F4F3" transform="translate(246,42)"/>
<path d="M0 0 C2.97 0 5.94 0 9 0 C9 2.64 9 5.28 9 8 C9.66 7.67 10.32 7.34 11 7 C15.03990348 6.61887703 17.29321967 6.5759318 20.8125 8.6875 C23.72853387 11.77016438 24.93353345 13.85352138 25.06640625 18.14453125 C24.83938248 22.29287465 24.31600874 24.55387002 21.875 28 C18.45735293 30.37749362 16.13408972 30.84688557 12 31 C11.01 30.67 10.02 30.34 9 30 C6.03 30 3.06 30 0 30 C0 20.1 0 10.2 0 0 Z M10 15 C8.64381501 16.12534105 8.64381501 16.12534105 8.9375 19.0625 C8.958125 20.031875 8.97875 21.00125 9 22 C11.39719432 22.67958603 11.39719432 22.67958603 14 23 C14.66 22.34 15.32 21.68 16 21 C15.67958603 18.39719432 15.67958603 18.39719432 15 16 C13.34385343 15.61781233 11.67542976 15.28604898 10 15 Z " fill="#F1F5F4" transform="translate(59,41)"/>
<path d="M0 0 C0.99 0 1.98 0 3 0 C5.97 0 8.94 0 12 0 C12 7.59 12 15.18 12 23 C8.37 23 4.74 23 1 23 C-0.27875 23.226875 -1.5575 23.45375 -2.875 23.6875 C-6 24 -6 24 -8.8125 22.8125 C-11.73348274 20.39225716 -12.82827933 18.37153524 -13.30078125 14.59765625 C-13.34071173 5.95936205 -13.34071173 5.95936205 -10 2 C-6.32312983 -0.45124678 -4.33872783 -0.15495457 0 0 Z M-4 9 C-4.04080783 10.99958364 -4.04254356 13.00045254 -4 15 C-1.60280568 15.67958603 -1.60280568 15.67958603 1 16 C1.66 15.34 2.32 14.68 3 14 C2.67801034 10.90073181 2.67801034 10.90073181 2 8 C-1.28930404 7.63314303 -1.28930404 7.63314303 -4 9 Z " fill="#F1F4F4" transform="translate(98,48)"/>
<path d="M0 0 C3.07061968 1.71368609 5.40450726 3.80901452 7 7 C7.04022391 9.3329866 7.04320247 11.66706666 7 14 C3.7 14.33 0.4 14.66 -3 15 C0.3 15 3.6 15 7 15 C5.56193507 18.59516233 4.48547578 20.65000583 1.3125 22.9375 C-2.81542137 24.26155025 -5.86360158 24.27666618 -10 23 C-12.76101146 21.17890734 -14.52100548 19.95798903 -16 17 C-16.42308538 12.40301468 -16.53894467 8.29346722 -14.75 4 C-10.79144925 -0.524058 -5.70160629 -0.99630145 0 0 Z M-6 7 C-6.33 7.66 -6.66 8.32 -7 9 C-5.35 9 -3.7 9 -2 9 C-2.33 8.34 -2.66 7.68 -3 7 C-3.99 7 -4.98 7 -6 7 Z " fill="#F1F4F3" transform="translate(162,48)"/>
<path d="M0 0 C2.97 0 5.94 0 9 0 C9 1.65 9 3.3 9 5 C10.32 5 11.64 5 13 5 C13 7.64 13 10.28 13 13 C11.68 13 10.36 13 9 13 C9 15.64 9 18.28 9 21 C10.32 21 11.64 21 13 21 C13 23.31 13 25.62 13 28 C11.56344146 28.08131463 10.1255517 28.13933559 8.6875 28.1875 C7.48673828 28.23970703 7.48673828 28.23970703 6.26171875 28.29296875 C4 28 4 28 2.26953125 26.67578125 C-0.01513856 23.6600171 -0.11525592 20.95265872 -0.0625 17.3125 C-0.05347656 16.50425781 -0.04445312 15.69601563 -0.03515625 14.86328125 C-0.01775391 13.94095703 -0.01775391 13.94095703 0 13 C-0.99 12.67 -1.98 12.34 -3 12 C-3 9.69 -3 7.38 -3 5 C-2.01 5 -1.02 5 0 5 C0 3.35 0 1.7 0 0 Z " fill="#F1F4F4" transform="translate(131,43)"/>
<path d="M0 0 C2.97 0 5.94 0 9 0 C9 1.65 9 3.3 9 5 C10.32 5 11.64 5 13 5 C13 7.64 13 10.28 13 13 C11.68 13 10.36 13 9 13 C9 15.64 9 18.28 9 21 C10.32 21 11.64 21 13 21 C13 23.31 13 25.62 13 28 C5.71070615 28.36446469 5.71070615 28.36446469 2.5625 26.75 C-0.93072869 22.83758386 -0.08288669 17.97320162 0 13 C-0.66 13 -1.32 13 -2 13 C-2 10.36 -2 7.72 -2 5 C-1.34 5 -0.68 5 0 5 C0 3.35 0 1.7 0 0 Z " fill="#F1F4F4" transform="translate(114,43)"/>
<path d="M0 0 C2.64 0 5.28 0 8 0 C8 9.57 8 19.14 8 29 C5.36 29 2.72 29 0 29 C0 19.43 0 9.86 0 0 Z " fill="#F1F4F3" transform="translate(216,42)"/>
<path d="M0 0 C1.1859375 0.00257812 2.371875 0.00515625 3.59375 0.0078125 C4.7796875 0.00523438 5.965625 0.00265625 7.1875 0 C10.09375 0.1328125 10.09375 0.1328125 11.09375 1.1328125 C11.09375 3.4428125 11.09375 5.7528125 11.09375 8.1328125 C6.14375 8.1328125 1.19375 8.1328125 -3.90625 8.1328125 C-3.90625 0.17851142 -3.90625 0.17851142 0 0 Z " fill="#2DD0A1" transform="translate(20.90625,-0.1328125)"/>
</svg>
