<svg width="258" height="101" viewBox="0 0 258 101" fill="none" xmlns="http://www.w3.org/2000/svg">
<path d="M67.08 51.68C67.6933 50.6133 68.56 49.7867 69.68 49.2C70.8 48.5867 72.12 48.28 73.64 48.28C75.4267 48.28 77.04 48.7467 78.48 49.68C79.9467 50.6133 81.0933 51.9467 81.92 53.68C82.7733 55.4133 83.2 57.44 83.2 59.76C83.2 62.08 82.7733 64.12 81.92 65.88C81.0933 67.6133 79.9467 68.9467 78.48 69.88C77.04 70.8133 75.4267 71.28 73.64 71.28C72.12 71.28 70.8 70.9867 69.68 70.4C68.56 69.7867 67.6933 68.9467 67.08 67.88V71H59.24V41.4H67.08V51.68ZM75.24 59.76C75.24 58.2933 74.84 57.16 74.04 56.36C73.2667 55.5333 72.3067 55.12 71.16 55.12C70.0133 55.12 69.04 55.5333 68.24 56.36C67.4667 57.1867 67.08 58.32 67.08 59.76C67.08 61.2267 67.4667 62.3733 68.24 63.2C69.04 64.0267 70.0133 64.44 71.16 64.44C72.3067 64.44 73.2667 64.0267 74.04 63.2C74.84 62.3467 75.24 61.2 75.24 59.76ZM85.1475 59.76C85.1475 57.44 85.5608 55.4133 86.3875 53.68C87.2408 51.9467 88.3875 50.6133 89.8275 49.68C91.2942 48.7467 92.9208 48.28 94.7075 48.28C96.2542 48.28 97.5875 48.5867 98.7075 49.2C99.8275 49.8133 100.694 50.64 101.308 51.68V48.56H109.148V71H101.308V67.88C100.694 68.92 99.8142 69.7467 98.6675 70.36C97.5475 70.9733 96.2275 71.28 94.7075 71.28C92.9208 71.28 91.2942 70.8133 89.8275 69.88C88.3875 68.9467 87.2408 67.6133 86.3875 65.88C85.5608 64.12 85.1475 62.08 85.1475 59.76ZM101.308 59.76C101.308 58.32 100.908 57.1867 100.108 56.36C99.3342 55.5333 98.3742 55.12 97.2275 55.12C96.0542 55.12 95.0808 55.5333 94.3075 56.36C93.5342 57.16 93.1475 58.2933 93.1475 59.76C93.1475 61.2 93.5342 62.3467 94.3075 63.2C95.0808 64.0267 96.0542 64.44 97.2275 64.44C98.3742 64.44 99.3342 64.0267 100.108 63.2C100.908 62.3733 101.308 61.2267 101.308 59.76ZM126.855 64.32V71H123.455C117.722 71 114.855 68.16 114.855 62.48V55.08H112.095V48.56H114.855V43.12H122.735V48.56H126.815V55.08H122.735V62.6C122.735 63.2133 122.868 63.6533 123.135 63.92C123.428 64.1867 123.908 64.32 124.575 64.32H126.855ZM143.691 64.32V71H140.291C134.558 71 131.691 68.16 131.691 62.48V55.08H128.931V48.56H131.691V43.12H139.571V48.56H143.651V55.08H139.571V62.6C139.571 63.2133 139.704 63.6533 139.971 63.92C140.264 64.1867 140.744 64.32 141.411 64.32H143.691ZM168.727 59.52C168.727 60.1333 168.687 60.7467 168.607 61.36H153.767C153.847 62.5867 154.18 63.5067 154.767 64.12C155.38 64.7067 156.154 65 157.087 65C158.394 65 159.327 64.4133 159.887 63.24H168.247C167.9 64.7867 167.22 66.1733 166.207 67.4C165.22 68.6 163.967 69.5467 162.447 70.24C160.927 70.9333 159.247 71.28 157.407 71.28C155.194 71.28 153.22 70.8133 151.487 69.88C149.78 68.9467 148.434 67.6133 147.447 65.88C146.487 64.1467 146.007 62.1067 146.007 59.76C146.007 57.4133 146.487 55.3867 147.447 53.68C148.407 51.9467 149.74 50.6133 151.447 49.68C153.18 48.7467 155.167 48.28 157.407 48.28C159.62 48.28 161.58 48.7333 163.287 49.64C164.994 50.5467 166.327 51.8533 167.287 53.56C168.247 55.24 168.727 57.2267 168.727 59.52ZM160.727 57.56C160.727 56.6 160.407 55.8533 159.767 55.32C159.127 54.76 158.327 54.48 157.367 54.48C156.407 54.48 155.62 54.7467 155.007 55.28C154.394 55.7867 153.994 56.5467 153.807 57.56H160.727ZM179.775 52.52C180.655 51.24 181.722 50.2267 182.975 49.48C184.229 48.7333 185.575 48.36 187.015 48.36V56.72H184.815C183.109 56.72 181.842 57.0533 181.015 57.72C180.189 58.3867 179.775 59.5467 179.775 61.2V71H171.935V48.56H179.775V52.52ZM213.986 48.56L199.746 81.68H191.226L196.586 70.04L187.386 48.56H196.106L200.826 61.28L205.386 48.56H213.986ZM223.877 42.8V71H216.037V42.8H223.877ZM247.662 75.72L244.542 71.04C243.662 71.2 242.768 71.28 241.862 71.28C239.222 71.28 236.795 70.6667 234.582 69.44C232.368 68.1867 230.608 66.4667 229.302 64.28C228.022 62.0667 227.382 59.5733 227.382 56.8C227.382 54.0267 228.022 51.5467 229.302 49.36C230.608 47.1467 232.368 45.4267 234.582 44.2C236.795 42.9733 239.222 42.36 241.862 42.36C244.528 42.36 246.955 42.9733 249.142 44.2C251.355 45.4267 253.102 47.1467 254.382 49.36C255.662 51.5467 256.302 54.0267 256.302 56.8C256.302 59.12 255.835 61.2667 254.902 63.24C253.968 65.1867 252.688 66.8133 251.062 68.12L257.022 75.72H247.662ZM235.382 56.8C235.382 59.0133 235.955 60.7733 237.102 62.08C238.248 63.36 239.835 64 241.862 64C243.862 64 245.435 63.3467 246.582 62.04C247.755 60.7333 248.342 58.9867 248.342 56.8C248.342 54.56 247.755 52.8 246.582 51.52C245.435 50.2133 243.862 49.56 241.862 49.56C239.835 49.56 238.248 50.2133 237.102 51.52C235.955 52.8 235.382 54.56 235.382 56.8Z" fill="#0F1415"/>
<path d="M0 86H50V96C50 98.7614 47.7614 101 45 101H5C2.23858 101 0 98.7614 0 96V86Z" fill="#1E2D2F"/>
<rect y="70.5" width="50" height="15" fill="#284940"/>
<path d="M0 55H40C45.5229 55 50 59.4772 50 65V70H0V55Z" fill="#327552"/>
<path d="M0 39.5H50V44.5C50 50.0228 45.5229 54.5 40 54.5H0V39.5Z" fill="#3C9F71"/>
<rect y="24" width="50" height="15" fill="#48B88E"/>
<path d="M0 13.5C0 10.7386 2.23858 8.5 5 8.5H45C47.7614 8.5 50 10.7386 50 13.5V23.5H0V13.5Z" fill="#53CDA8"/>
<path d="M17 3C17 1.34315 18.3431 0 20 0H29C30.6569 0 32 1.34315 32 3V8H17V3Z" fill="#2ED1A2"/>
</svg>
